<svg xmlns="http://www.w3.org/2000/svg" fill="url(#gradient)" height="90" width="132.38" version="1.1" preserveAspectRatio="xMinYMin meet" viewBox="0 0 391.54 266.19">
    <defs xmlns="http://www.w3.org/2000/svg">
        <linearGradient id="gradient" gradientUnits="userSpaceOnUse">
            <stop stop-color="#6a98f0" />
            <stop offset="1" stop-color="#4961dc" />
        </linearGradient>
    </defs>
    <g>
        <path d="M355.9,34.83Q320.26,0,253.62,0h-31V51.76h29.57q42.42,0,62.91,21.13t20.49,60.32q0,39.21-20.49,59.76Q301.77,206.33,281,211a29.1,29.1,0,0,0-22.65,28.42h0a24.34,24.34,0,0,0,28.25,24q44.85-7.11,70.22-33.51,34.75-36.16,34.75-98.2T355.9,34.83Z" />
        <path d="M174.71,50.44v75.72c0,14.06-18,19.84-26.21,8.39L59.49,9.83A23.46,23.46,0,0,0,40.39,0h0A40,40,0,0,0,.44,40V201.2a5.06,5.06,0,0,0,8,4.08,35.18,35.18,0,0,1,20.2-6.69,33.63,33.63,0,0,1,19.5,6.1A5,5,0,0,0,56,200.5V145.09c0-14.23,18.27-20.08,26.53-8.48l84.69,119A24.92,24.92,0,0,0,187.55,266h0a42.75,42.75,0,0,0,42.75-42.75V5.05a5,5,0,0,0-5.05-5h-.11A50.43,50.43,0,0,0,174.71,50.44Z" />
        <circle cx="28.5" cy="237.69" r="28.5" />
    </g>
</svg>